<?xml version="1.0" encoding="UTF-8"?>
<svg version="1.1" xmlns="http://www.w3.org/2000/svg" width="500" height="500">
<path d="M0 0 C0.84804199 0.2676416 1.69608398 0.5352832 2.56982422 0.81103516 C23.18728445 7.47287096 42.46562918 17.2689967 60 30 C61.06863281 30.76441406 62.13726562 31.52882812 63.23828125 32.31640625 C107.45538924 65.08781595 136.71986987 114.69206483 145.54345703 168.87109375 C146.85753933 177.87712514 147.55691695 186.91344084 148 196 C148.03996094 196.75120117 148.07992188 197.50240234 148.12109375 198.27636719 C150.51699506 249.57261416 129.85323293 303.02161787 95.63305664 340.92016602 C91.85424038 345.04999544 87.96410084 349.04868658 84 353 C83.35160156 353.68320312 82.70320313 354.36640625 82.03515625 355.0703125 C46.33276281 392.25735993 -7.5958483 411.80870719 -58.3828125 413.125 C-70.02969228 413.33044021 -81.45810209 412.53687056 -93 411 C-93.83805176 410.89236328 -94.67610352 410.78472656 -95.53955078 410.67382812 C-117.28880775 407.73462714 -140.07909922 400.85385934 -159.22998047 389.99755859 C-161.1066849 388.93987386 -163.00510273 387.93142115 -164.91015625 386.92578125 C-189.63899277 373.69117967 -211.85769313 355.21828606 -229 333 C-229.42780762 332.44860352 -229.85561523 331.89720703 -230.29638672 331.32910156 C-251.99242003 303.18754161 -266.59943847 270.19995096 -272 235 C-272.11424316 234.32437012 -272.22848633 233.64874023 -272.34619141 232.95263672 C-276.12854184 210.14086098 -275.64925202 184.59646305 -271 162 C-270.83371094 161.15791992 -270.66742188 160.31583984 -270.49609375 159.44824219 C-262.85550398 121.59902432 -244.9896737 86.55163587 -218.375 58.55078125 C-215.97897195 56.04358465 -215.97897195 56.04358465 -213.90234375 53.36328125 C-210.99928347 49.75681006 -207.51956437 46.98852256 -204 44 C-203.08347656 43.18402344 -202.16695313 42.36804688 -201.22265625 41.52734375 C-169.81477564 13.79928109 -131.06023546 -1.70600574 -90 -8 C-89.31486328 -8.10530029 -88.62972656 -8.21060059 -87.92382812 -8.3190918 C-58.90450746 -12.14668773 -27.76802613 -8.81370304 0 0 Z M-34.015625 84.51953125 C-34.91569275 85.41814377 -35.8157605 86.31675629 -36.74310303 87.24259949 C-38.63032047 89.13146592 -40.51319187 91.02364217 -42.38964844 92.9230957 C-44.77003332 95.33188152 -47.16568814 97.72475935 -49.56665421 100.11301136 C-51.89069325 102.42834213 -54.20271369 104.7555924 -56.515625 107.08203125 C-57.36368713 107.92715775 -58.21174927 108.77228424 -59.08551025 109.64302063 C-71.1807728 121.92890335 -78.28551796 133.55944724 -78.31689453 150.93334961 C-78.12159663 162.97069241 -73.7864239 172.75675316 -65.625 181.5625 C-65.08875 182.036875 -64.5525 182.51125 -64 183 C-65.3584202 186.04332765 -66.88463024 188.12309151 -69.2578125 190.453125 C-69.88300781 191.071875 -70.50820312 191.690625 -71.15234375 192.328125 C-72.12880859 193.27945313 -72.12880859 193.27945313 -73.125 194.25 C-73.78371094 194.8996875 -74.44242187 195.549375 -75.12109375 196.21875 C-76.74296643 197.81711727 -78.3693281 199.41061897 -80 201 C-83.06222481 199.53160882 -85.32039471 197.92899219 -87.875 195.6875 C-98.26444765 187.61244963 -110.06318298 185.59583828 -122.87841797 186.70898438 C-142.56400794 189.40924022 -157.19284877 207.9879507 -170.46899414 221.22875977 C-172.68645203 223.43645664 -174.91437485 225.63323384 -177.14257812 227.83007812 C-189.69598735 240.28862022 -200.97282152 252.4222469 -201.25 271.0625 C-201.09987662 284.36343145 -197.05946196 295.05620567 -187.72265625 304.6328125 C-186.1794706 306.14071787 -184.62594244 307.63810785 -183.0625 309.125 C-181.50929212 310.62509568 -179.95848167 312.1276779 -178.41015625 313.6328125 C-177.6634668 314.35791016 -176.91677734 315.08300781 -176.14746094 315.83007812 C-174.08672517 317.91236774 -172.16999152 320.06065128 -170.26953125 322.2890625 C-161.44131173 332.57360119 -149.30842962 338.80633243 -135.890625 340.22265625 C-122.8799444 340.76872496 -111.16215738 335.95368528 -101.24305725 327.70823669 C-98.50992386 325.14785336 -95.859197 322.52680966 -93.23046875 319.859375 C-92.25627929 318.88601774 -91.28126973 317.91348068 -90.30549622 316.94171143 C-88.27998141 314.91902811 -86.26336962 312.88800315 -84.25317383 310.85009766 C-81.70244729 308.26527049 -79.1321356 305.70102845 -76.55498791 303.14257431 C-74.54407443 301.14233163 -72.54317298 299.13230147 -70.54506874 297.11927032 C-69.15044446 295.71709425 -67.74845628 294.32225436 -66.34623718 292.92767334 C-55.62899693 282.01346529 -48.08445546 270.14832353 -47.5 254.5 C-47.85820568 244.27261025 -51.15993706 232.05809196 -58.46484375 224.48046875 C-58.93019531 224.05378906 -59.39554688 223.62710938 -59.875 223.1875 C-60.57625 222.465625 -61.2775 221.74375 -62 221 C-61.71013118 217.45625155 -60.10203355 215.7465201 -57.62109375 213.328125 C-56.94755859 212.66425781 -56.27402344 212.00039063 -55.58007812 211.31640625 C-54.87302734 210.63449219 -54.16597656 209.95257813 -53.4375 209.25 C-52.72658203 208.55261719 -52.01566406 207.85523438 -51.28320312 207.13671875 C-49.52869286 205.4175342 -47.76756648 203.70574128 -46 202 C-45.57517334 202.38961914 -45.15034668 202.77923828 -44.71264648 203.18066406 C-34.37046075 212.39453393 -22.0494263 217.55670813 -8.140625 217.2421875 C7.69170454 216.02128647 18.90567815 207.88319166 29.76953125 196.859375 C30.74372071 195.88601774 31.71873027 194.91348068 32.69450378 193.94171143 C34.72001859 191.91902811 36.73663038 189.88800315 38.74682617 187.85009766 C41.29755271 185.26527049 43.8678644 182.70102845 46.44501209 180.14257431 C48.45592557 178.14233163 50.45682702 176.13230147 52.45493126 174.11927032 C53.84955554 172.71709425 55.25154372 171.32225436 56.65376282 169.92767334 C67.98523579 158.38794384 74.93219642 146.43106783 75 130 C74.12960955 112.70981143 64.51907909 101.43560879 52.66674805 89.97387695 C50.55158745 87.92693942 48.46485153 85.85400852 46.38085938 83.77539062 C45.02760308 82.44112284 43.67283677 81.10838446 42.31640625 79.77734375 C41.70156876 79.16898178 41.08673126 78.56061981 40.45326233 77.93382263 C31.02071652 68.85441396 20.23064386 63.92727024 7 63.5 C-10.14029714 64.08973275 -22.32669161 72.67426612 -34.015625 84.51953125 Z " fill="#000000" transform="translate(313,48)"/>
<path d="M0 0 C2.96006558 1.69146605 5.50375681 3.5014075 8.0625 5.75 C6.69148168 8.84825545 5.1407648 10.88251459 2.69140625 13.2109375 C2.03462891 13.84773438 1.37785156 14.48453125 0.70117188 15.140625 C-0.67700071 16.45786239 -2.05719476 17.77298821 -3.43945312 19.0859375 C-9.54110709 24.99353666 -9.54110709 24.99353666 -12.1875 32.91015625 C-11.69682734 36.64386855 -11.07720915 38.55687265 -8.8125 41.6875 C-5.31383149 44.19741437 -3.23498201 44.75 1.0625 44.75 C7.54319755 42.47455508 11.77008335 37.37507554 16.4375 32.5625 C17.26894531 31.71751953 18.10039062 30.87253906 18.95703125 30.00195312 C20.99916356 27.92461163 23.033939 25.84058192 25.0625 23.75 C30.6744164 29.15716987 34.23005846 33.76218437 34.5 41.75 C33.60379716 58.13059639 17.24507686 69.7540263 6.31762695 80.68017578 C4.23034827 82.76967261 2.15125056 84.86709849 0.07226562 86.96484375 C-1.27034469 88.31038359 -2.61342651 89.65545315 -3.95703125 91 C-4.5696431 91.61979736 -5.18225494 92.23959473 -5.81343079 92.87817383 C-12.22317858 99.25419337 -18.14417826 103.22333439 -27.375 104.0625 C-36.27844582 103.28149598 -41.09632447 99.43417849 -47.30175781 93.34619141 C-49.24152865 91.45332249 -51.21211634 89.59441507 -53.1796875 87.73046875 C-54.70473744 86.25948237 -56.22816546 84.78681269 -57.75 83.3125 C-58.47952881 82.62140137 -59.20905762 81.93030273 -59.96069336 81.21826172 C-66.14787821 75.12435817 -71.02146754 68.48675188 -71.4375 59.5625 C-70.6792588 47.10012546 -60.45088748 39.10406094 -52.1875 30.76171875 C-51.37055664 29.93670364 -50.55361328 29.11168854 -49.71191406 28.26167297 C-47.99561252 26.53162978 -46.27781653 24.80306799 -44.55859375 23.07592773 C-42.80671646 21.31246482 -41.05933235 19.54452718 -39.31640625 17.7722168 C-36.78317081 15.19636396 -34.23699116 12.63397136 -31.6875 10.07421875 C-30.91438477 9.28359543 -30.14126953 8.49297211 -29.34472656 7.6783905 C-21.22767679 -0.40646723 -11.4127505 -4.54512164 0 0 Z " fill="#000000" transform="translate(206.9375,260.25)"/>
<path d="M0 0 C2.99433171 2.25811071 5.68388549 4.77062686 8.35986328 7.39501953 C9.57975215 8.58876014 10.80876592 9.77319028 12.04248047 10.95263672 C14.33289201 13.14296473 16.6057698 15.35024698 18.875 17.5625 C19.61290771 18.27035645 20.35081543 18.97821289 21.11108398 19.70751953 C27.27348105 25.80567349 31.49805124 31.8795724 32.08984375 40.7109375 C31.49716996 55.8112349 15.05432102 67.22926183 5.2487793 77.10131836 C3.45432972 78.91240284 1.66527313 80.72884636 -0.1184082 82.55053711 C-2.71137402 85.19830235 -5.3204395 87.82920651 -7.93359375 90.45703125 C-8.72342148 91.26952835 -9.51324921 92.08202545 -10.32701111 92.91914368 C-16.095817 98.66624806 -21.51776276 102.4231719 -30 102.4375 C-36.70531233 102.2311827 -41.9163686 99.2363595 -47 95 C-46.42524349 91.37426527 -45.08601259 89.73976491 -42.47265625 87.21484375 C-41.76302734 86.51939453 -41.05339844 85.82394531 -40.32226562 85.10742188 C-39.57654297 84.39134766 -38.83082031 83.67527344 -38.0625 82.9375 C-36.59290878 81.51131981 -35.12537074 80.08302009 -33.66015625 78.65234375 C-33.00668213 78.02320068 -32.35320801 77.39405762 -31.67993164 76.74584961 C-28.63969735 73.58632114 -27.67359383 71.42498478 -27.5625 67.125 C-27.65541707 63.3809885 -27.88628123 62.17413187 -30 58.9375 C-33.6498306 56.58031774 -36.69036723 55.4660142 -41 56 C-47.40288568 58.83471925 -52.21834364 63.84547128 -57 68.8125 C-57.67933594 69.50537109 -58.35867188 70.19824219 -59.05859375 70.91210938 C-60.71288277 72.60134817 -62.35968286 74.29720984 -64 76 C-68.21306632 74.0961876 -69.78356987 72.13733624 -72 68 C-74.2072398 61.36701918 -74.54407977 55.54921882 -72 49 C-67.95342423 42.46139556 -62.39295552 37.04295124 -57.015625 31.609375 C-56.15998962 30.74233948 -55.30435425 29.87530396 -54.42279053 28.98199463 C-52.6202711 27.16067801 -50.81490116 25.34217849 -49.00683594 23.52636719 C-46.25813154 20.75818915 -43.5315109 17.9693998 -40.8046875 15.1796875 C-39.04299122 13.40493421 -37.28001223 11.63145308 -35.515625 9.859375 C-34.71110901 9.03016541 -33.90659302 8.20095581 -33.07769775 7.34661865 C-23.89733367 -1.76316551 -12.25412215 -7.00561546 0 0 Z " fill="#000000" transform="translate(332,139)"/>
</svg>
